<svg height="384pt" viewBox="0 -64 384.00279 384" width="384pt" xmlns="http://www.w3.org/2000/svg"><path d="m272.003906 9.378906c-6.039062-6.050781-14.078125-9.378906-22.632812-9.378906h-233.367188c-6.472656 0-12.304687 3.898438-14.78125 9.875-2.480468 5.980469-1.113281 12.855469 3.46875 17.4375l99.160156 99.160156c.425782.425782.632813.976563.632813 1.527344 0 .554688-.207031 1.105469-.625 1.519531l-99.167969 99.167969c-4.574218 4.578125-5.941406 11.457031-3.46875 17.441406 2.476563 5.976563 8.308594 9.871094 14.78125 9.871094h233.367188c8.546875 0 16.585937-3.328125 22.632812-9.375l107.3125-107.3125c6.25-6.246094 6.25-16.375 0-22.625zm-22.632812 214.621094h-194.734375l71.855469-71.855469c2.441406-2.445312 4.28125-5.230469 5.824218-8.144531h43.6875c8.832032 0 16-7.167969 16-16s-7.167968-16-16-16h-43.6875c-1.542968-2.910156-3.382812-5.695312-5.832031-8.152344l-71.847656-71.847656h194.742187l96 96zm0 0"/></svg>